<mxfile modified="2020-09-26T21:31:29.951Z" host="app.diagrams.net" agent="5.0 (Windows NT 6.1; WOW64) AppleWebKit/537.36 (KHTML, like Gecko) Chrome/83.0.4103.116 Safari/537.36" etag="DJ0VWAGtVvQA_rwwUeX5" version="13.7.5" type="github">
  <diagram id="R5pfA701NaSD8N2ByGOf" name="Page-1">
    <mxGraphModel dx="3206" dy="490" grid="1" gridSize="10" guides="1" tooltips="1" connect="1" arrows="1" fold="1" page="1" pageScale="1" pageWidth="1169" pageHeight="827" math="0" shadow="0">
      <root>
        <mxCell id="0" />
        <mxCell id="1" parent="0" />
        <mxCell id="119IcOjmTgw26iHcHYF6-54" value="&lt;span style=&quot;font-size: 29px&quot;&gt;&lt;b&gt;Tu Lugar&lt;/b&gt;&lt;/span&gt;" style="text;html=1;align=center;verticalAlign=middle;resizable=0;points=[];;autosize=1;fontColor=#FF0000;" parent="1" vertex="1">
          <mxGeometry x="-1240" y="50" width="140" height="30" as="geometry" />
        </mxCell>
        <mxCell id="119IcOjmTgw26iHcHYF6-61" style="edgeStyle=orthogonalEdgeStyle;rounded=0;orthogonalLoop=1;jettySize=auto;html=1;exitX=0;exitY=0.25;exitDx=0;exitDy=0;entryX=0.5;entryY=1;entryDx=0;entryDy=0;fontSize=20;strokeColor=none;endArrow=ERoneToMany;endFill=0;startArrow=ERmandOne;startFill=0;" parent="1" edge="1">
          <mxGeometry relative="1" as="geometry">
            <mxPoint x="-874.833333333333" y="496.16999999999996" as="targetPoint" />
            <mxPoint x="-670.5" y="390.5900000000001" as="sourcePoint" />
          </mxGeometry>
        </mxCell>
        <mxCell id="CLIR_dkmVU7LcoB8GXZn-50" value="" style="edgeStyle=entityRelationEdgeStyle;fontSize=12;html=1;endArrow=ERoneToMany;startArrow=ERmandOne;" parent="1" source="wo6G9_hcHMEhKj3WZoyq-82" target="wo6G9_hcHMEhKj3WZoyq-15" edge="1">
          <mxGeometry width="100" height="100" relative="1" as="geometry">
            <mxPoint x="-1159.5" y="414" as="sourcePoint" />
            <mxPoint x="-1059.5" y="314" as="targetPoint" />
          </mxGeometry>
        </mxCell>
        <mxCell id="CLIR_dkmVU7LcoB8GXZn-51" value="U a M" style="edgeLabel;html=1;align=center;verticalAlign=middle;resizable=0;points=[];fontColor=#000000;" parent="CLIR_dkmVU7LcoB8GXZn-50" vertex="1" connectable="0">
          <mxGeometry x="-0.2065" y="1" relative="1" as="geometry">
            <mxPoint as="offset" />
          </mxGeometry>
        </mxCell>
        <mxCell id="CLIR_dkmVU7LcoB8GXZn-52" value="" style="edgeStyle=entityRelationEdgeStyle;fontSize=12;html=1;endArrow=ERoneToMany;startArrow=ERmandOne;" parent="1" source="wo6G9_hcHMEhKj3WZoyq-42" target="wo6G9_hcHMEhKj3WZoyq-12" edge="1">
          <mxGeometry width="100" height="100" relative="1" as="geometry">
            <mxPoint x="-1159.5" y="414" as="sourcePoint" />
            <mxPoint x="-1059.5" y="314" as="targetPoint" />
          </mxGeometry>
        </mxCell>
        <mxCell id="CLIR_dkmVU7LcoB8GXZn-53" value="U a M" style="edgeLabel;html=1;align=center;verticalAlign=middle;resizable=0;points=[];fontColor=#000000;" parent="CLIR_dkmVU7LcoB8GXZn-52" vertex="1" connectable="0">
          <mxGeometry x="-0.0073" y="2" relative="1" as="geometry">
            <mxPoint x="9.530000000000001" y="1.500000000000003" as="offset" />
          </mxGeometry>
        </mxCell>
        <mxCell id="XidrcmPHRUJYJWmRy7Ku-38" value="&lt;span style=&quot;font-size: 29px&quot;&gt;&lt;b&gt;desk&lt;/b&gt;&lt;/span&gt;" style="text;html=1;align=center;verticalAlign=middle;resizable=0;points=[];;autosize=1;fontColor=#FF0000;" parent="1" vertex="1">
          <mxGeometry x="-460" y="180" width="80" height="30" as="geometry" />
        </mxCell>
        <mxCell id="AehaRHMQvMuTLqHuPT1a-1" value="&lt;span style=&quot;font-size: 29px&quot;&gt;&lt;b&gt;Usuarios&lt;/b&gt;&lt;/span&gt;" style="text;html=1;align=center;verticalAlign=middle;resizable=0;points=[];;autosize=1;fontColor=#FF0000;" parent="1" vertex="1">
          <mxGeometry x="-1350" y="274" width="140" height="30" as="geometry" />
        </mxCell>
        <mxCell id="q4nYXfPgGUGxlYT1T-ly-5" value="" style="edgeStyle=entityRelationEdgeStyle;fontSize=12;html=1;endArrow=ERoneToMany;startArrow=ERmandOne;entryX=0;entryY=0.5;entryDx=0;entryDy=0;" parent="1" source="wo6G9_hcHMEhKj3WZoyq-115" target="wo6G9_hcHMEhKj3WZoyq-108" edge="1">
          <mxGeometry width="100" height="100" relative="1" as="geometry">
            <mxPoint x="-1550" y="505.93952" as="sourcePoint" />
            <mxPoint x="-872.6199999999999" y="650" as="targetPoint" />
          </mxGeometry>
        </mxCell>
        <mxCell id="q4nYXfPgGUGxlYT1T-ly-6" value="U a M" style="edgeLabel;html=1;align=center;verticalAlign=middle;resizable=0;points=[];" parent="q4nYXfPgGUGxlYT1T-ly-5" vertex="1" connectable="0">
          <mxGeometry x="-0.0439" y="-2" relative="1" as="geometry">
            <mxPoint as="offset" />
          </mxGeometry>
        </mxCell>
        <mxCell id="q4nYXfPgGUGxlYT1T-ly-7" value="" style="edgeStyle=entityRelationEdgeStyle;fontSize=12;html=1;endArrow=ERoneToMany;startArrow=ERmandOne;entryX=0;entryY=0.5;entryDx=0;entryDy=0;" parent="1" source="wo6G9_hcHMEhKj3WZoyq-9" target="wo6G9_hcHMEhKj3WZoyq-105" edge="1">
          <mxGeometry width="100" height="100" relative="1" as="geometry">
            <mxPoint x="-680.5" y="440" as="sourcePoint" />
            <mxPoint x="-1120" y="430" as="targetPoint" />
          </mxGeometry>
        </mxCell>
        <mxCell id="wo6G9_hcHMEhKj3WZoyq-8" value="desk" style="shape=table;startSize=30;container=1;collapsible=1;childLayout=tableLayout;fixedRows=1;rowLines=0;fontStyle=1;align=center;resizeLast=1;labelBackgroundColor=none;strokeColor=#6c8ebf;fillColor=#007FFF;fontColor=#FFFFFF;" parent="1" vertex="1">
          <mxGeometry x="-780" y="274" width="140" height="160" as="geometry">
            <mxRectangle x="-620" y="560" width="60" height="30" as="alternateBounds" />
          </mxGeometry>
        </mxCell>
        <mxCell id="wo6G9_hcHMEhKj3WZoyq-9" value="" style="shape=partialRectangle;collapsible=0;dropTarget=0;pointerEvents=0;fillColor=none;top=0;left=0;bottom=1;right=0;points=[[0,0.5],[1,0.5]];portConstraint=eastwest;" parent="wo6G9_hcHMEhKj3WZoyq-8" vertex="1">
          <mxGeometry y="30" width="140" height="30" as="geometry" />
        </mxCell>
        <mxCell id="wo6G9_hcHMEhKj3WZoyq-10" value="PK" style="shape=partialRectangle;connectable=0;fillColor=none;top=0;left=0;bottom=0;right=0;fontStyle=1;overflow=hidden;" parent="wo6G9_hcHMEhKj3WZoyq-9" vertex="1">
          <mxGeometry width="30" height="30" as="geometry" />
        </mxCell>
        <mxCell id="wo6G9_hcHMEhKj3WZoyq-11" value="id" style="shape=partialRectangle;connectable=0;fillColor=none;top=0;left=0;bottom=0;right=0;align=left;spacingLeft=6;fontStyle=5;overflow=hidden;" parent="wo6G9_hcHMEhKj3WZoyq-9" vertex="1">
          <mxGeometry x="30" width="110" height="30" as="geometry" />
        </mxCell>
        <mxCell id="wo6G9_hcHMEhKj3WZoyq-12" value="" style="shape=partialRectangle;collapsible=0;dropTarget=0;pointerEvents=0;fillColor=none;top=0;left=0;bottom=0;right=0;points=[[0,0.5],[1,0.5]];portConstraint=eastwest;" parent="wo6G9_hcHMEhKj3WZoyq-8" vertex="1">
          <mxGeometry y="60" width="140" height="30" as="geometry" />
        </mxCell>
        <mxCell id="wo6G9_hcHMEhKj3WZoyq-13" value="FK" style="shape=partialRectangle;connectable=0;fillColor=none;top=0;left=0;bottom=0;right=0;editable=1;overflow=hidden;" parent="wo6G9_hcHMEhKj3WZoyq-12" vertex="1">
          <mxGeometry width="30" height="30" as="geometry" />
        </mxCell>
        <mxCell id="wo6G9_hcHMEhKj3WZoyq-14" value="area_id" style="shape=partialRectangle;connectable=0;fillColor=none;top=0;left=0;bottom=0;right=0;align=left;spacingLeft=6;overflow=hidden;" parent="wo6G9_hcHMEhKj3WZoyq-12" vertex="1">
          <mxGeometry x="30" width="110" height="30" as="geometry" />
        </mxCell>
        <mxCell id="wo6G9_hcHMEhKj3WZoyq-15" value="" style="shape=partialRectangle;collapsible=0;dropTarget=0;pointerEvents=0;fillColor=none;top=0;left=0;bottom=0;right=0;points=[[0,0.5],[1,0.5]];portConstraint=eastwest;" parent="wo6G9_hcHMEhKj3WZoyq-8" vertex="1">
          <mxGeometry y="90" width="140" height="30" as="geometry" />
        </mxCell>
        <mxCell id="wo6G9_hcHMEhKj3WZoyq-16" value="FK" style="shape=partialRectangle;connectable=0;fillColor=none;top=0;left=0;bottom=0;right=0;editable=1;overflow=hidden;" parent="wo6G9_hcHMEhKj3WZoyq-15" vertex="1">
          <mxGeometry width="30" height="30" as="geometry" />
        </mxCell>
        <mxCell id="wo6G9_hcHMEhKj3WZoyq-17" value="status_id" style="shape=partialRectangle;connectable=0;fillColor=none;top=0;left=0;bottom=0;right=0;align=left;spacingLeft=6;overflow=hidden;" parent="wo6G9_hcHMEhKj3WZoyq-15" vertex="1">
          <mxGeometry x="30" width="110" height="30" as="geometry" />
        </mxCell>
        <mxCell id="wo6G9_hcHMEhKj3WZoyq-18" value="" style="shape=partialRectangle;collapsible=0;dropTarget=0;pointerEvents=0;fillColor=none;top=0;left=0;bottom=0;right=0;points=[[0,0.5],[1,0.5]];portConstraint=eastwest;" parent="wo6G9_hcHMEhKj3WZoyq-8" vertex="1">
          <mxGeometry y="120" width="140" height="30" as="geometry" />
        </mxCell>
        <mxCell id="wo6G9_hcHMEhKj3WZoyq-19" value="" style="shape=partialRectangle;connectable=0;fillColor=none;top=0;left=0;bottom=0;right=0;editable=1;overflow=hidden;" parent="wo6G9_hcHMEhKj3WZoyq-18" vertex="1">
          <mxGeometry width="30" height="30" as="geometry" />
        </mxCell>
        <mxCell id="wo6G9_hcHMEhKj3WZoyq-20" value="pc" style="shape=partialRectangle;connectable=0;fillColor=none;top=0;left=0;bottom=0;right=0;align=left;spacingLeft=6;overflow=hidden;" parent="wo6G9_hcHMEhKj3WZoyq-18" vertex="1">
          <mxGeometry x="30" width="110" height="30" as="geometry" />
        </mxCell>
        <mxCell id="wo6G9_hcHMEhKj3WZoyq-41" value="areas" style="shape=table;startSize=30;container=1;collapsible=1;childLayout=tableLayout;fixedRows=1;rowLines=0;fontStyle=1;align=center;resizeLast=1;labelBackgroundColor=none;strokeColor=#6c8ebf;fillColor=#007FFF;fontColor=#FFFFFF;" parent="1" vertex="1">
          <mxGeometry x="-490" y="304" width="140" height="130" as="geometry">
            <mxRectangle x="-620" y="560" width="60" height="30" as="alternateBounds" />
          </mxGeometry>
        </mxCell>
        <mxCell id="wo6G9_hcHMEhKj3WZoyq-42" value="" style="shape=partialRectangle;collapsible=0;dropTarget=0;pointerEvents=0;fillColor=none;top=0;left=0;bottom=1;right=0;points=[[0,0.5],[1,0.5]];portConstraint=eastwest;" parent="wo6G9_hcHMEhKj3WZoyq-41" vertex="1">
          <mxGeometry y="30" width="140" height="30" as="geometry" />
        </mxCell>
        <mxCell id="wo6G9_hcHMEhKj3WZoyq-43" value="PK" style="shape=partialRectangle;connectable=0;fillColor=none;top=0;left=0;bottom=0;right=0;fontStyle=1;overflow=hidden;" parent="wo6G9_hcHMEhKj3WZoyq-42" vertex="1">
          <mxGeometry width="30" height="30" as="geometry" />
        </mxCell>
        <mxCell id="wo6G9_hcHMEhKj3WZoyq-44" value="id" style="shape=partialRectangle;connectable=0;fillColor=none;top=0;left=0;bottom=0;right=0;align=left;spacingLeft=6;fontStyle=5;overflow=hidden;" parent="wo6G9_hcHMEhKj3WZoyq-42" vertex="1">
          <mxGeometry x="30" width="110" height="30" as="geometry" />
        </mxCell>
        <mxCell id="wo6G9_hcHMEhKj3WZoyq-45" value="" style="shape=partialRectangle;collapsible=0;dropTarget=0;pointerEvents=0;fillColor=none;top=0;left=0;bottom=0;right=0;points=[[0,0.5],[1,0.5]];portConstraint=eastwest;" parent="wo6G9_hcHMEhKj3WZoyq-41" vertex="1">
          <mxGeometry y="60" width="140" height="30" as="geometry" />
        </mxCell>
        <mxCell id="wo6G9_hcHMEhKj3WZoyq-46" value="" style="shape=partialRectangle;connectable=0;fillColor=none;top=0;left=0;bottom=0;right=0;editable=1;overflow=hidden;" parent="wo6G9_hcHMEhKj3WZoyq-45" vertex="1">
          <mxGeometry width="30" height="30" as="geometry" />
        </mxCell>
        <mxCell id="wo6G9_hcHMEhKj3WZoyq-47" value="name" style="shape=partialRectangle;connectable=0;fillColor=none;top=0;left=0;bottom=0;right=0;align=left;spacingLeft=6;overflow=hidden;" parent="wo6G9_hcHMEhKj3WZoyq-45" vertex="1">
          <mxGeometry x="30" width="110" height="30" as="geometry" />
        </mxCell>
        <mxCell id="wo6G9_hcHMEhKj3WZoyq-48" value="" style="shape=partialRectangle;collapsible=0;dropTarget=0;pointerEvents=0;fillColor=none;top=0;left=0;bottom=0;right=0;points=[[0,0.5],[1,0.5]];portConstraint=eastwest;" parent="wo6G9_hcHMEhKj3WZoyq-41" vertex="1">
          <mxGeometry y="90" width="140" height="30" as="geometry" />
        </mxCell>
        <mxCell id="wo6G9_hcHMEhKj3WZoyq-49" value="FK" style="shape=partialRectangle;connectable=0;fillColor=none;top=0;left=0;bottom=0;right=0;editable=1;overflow=hidden;" parent="wo6G9_hcHMEhKj3WZoyq-48" vertex="1">
          <mxGeometry width="30" height="30" as="geometry" />
        </mxCell>
        <mxCell id="wo6G9_hcHMEhKj3WZoyq-50" value="location_id" style="shape=partialRectangle;connectable=0;fillColor=none;top=0;left=0;bottom=0;right=0;align=left;spacingLeft=6;overflow=hidden;" parent="wo6G9_hcHMEhKj3WZoyq-48" vertex="1">
          <mxGeometry x="30" width="110" height="30" as="geometry" />
        </mxCell>
        <mxCell id="wo6G9_hcHMEhKj3WZoyq-81" value="desk_status" style="shape=table;startSize=30;container=1;collapsible=1;childLayout=tableLayout;fixedRows=1;rowLines=0;fontStyle=1;align=center;resizeLast=1;labelBackgroundColor=none;strokeColor=#6c8ebf;fillColor=#007FFF;fontColor=#FFFFFF;" parent="1" vertex="1">
          <mxGeometry x="-490" y="454" width="140" height="100" as="geometry">
            <mxRectangle x="-620" y="560" width="60" height="30" as="alternateBounds" />
          </mxGeometry>
        </mxCell>
        <mxCell id="wo6G9_hcHMEhKj3WZoyq-82" value="" style="shape=partialRectangle;collapsible=0;dropTarget=0;pointerEvents=0;fillColor=none;top=0;left=0;bottom=1;right=0;points=[[0,0.5],[1,0.5]];portConstraint=eastwest;" parent="wo6G9_hcHMEhKj3WZoyq-81" vertex="1">
          <mxGeometry y="30" width="140" height="30" as="geometry" />
        </mxCell>
        <mxCell id="wo6G9_hcHMEhKj3WZoyq-83" value="PK" style="shape=partialRectangle;connectable=0;fillColor=none;top=0;left=0;bottom=0;right=0;fontStyle=1;overflow=hidden;" parent="wo6G9_hcHMEhKj3WZoyq-82" vertex="1">
          <mxGeometry width="30" height="30" as="geometry" />
        </mxCell>
        <mxCell id="wo6G9_hcHMEhKj3WZoyq-84" value="id" style="shape=partialRectangle;connectable=0;fillColor=none;top=0;left=0;bottom=0;right=0;align=left;spacingLeft=6;fontStyle=5;overflow=hidden;" parent="wo6G9_hcHMEhKj3WZoyq-82" vertex="1">
          <mxGeometry x="30" width="110" height="30" as="geometry" />
        </mxCell>
        <mxCell id="wo6G9_hcHMEhKj3WZoyq-85" value="" style="shape=partialRectangle;collapsible=0;dropTarget=0;pointerEvents=0;fillColor=none;top=0;left=0;bottom=0;right=0;points=[[0,0.5],[1,0.5]];portConstraint=eastwest;" parent="wo6G9_hcHMEhKj3WZoyq-81" vertex="1">
          <mxGeometry y="60" width="140" height="30" as="geometry" />
        </mxCell>
        <mxCell id="wo6G9_hcHMEhKj3WZoyq-86" value="" style="shape=partialRectangle;connectable=0;fillColor=none;top=0;left=0;bottom=0;right=0;editable=1;overflow=hidden;" parent="wo6G9_hcHMEhKj3WZoyq-85" vertex="1">
          <mxGeometry width="30" height="30" as="geometry" />
        </mxCell>
        <mxCell id="wo6G9_hcHMEhKj3WZoyq-87" value="name" style="shape=partialRectangle;connectable=0;fillColor=none;top=0;left=0;bottom=0;right=0;align=left;spacingLeft=6;overflow=hidden;" parent="wo6G9_hcHMEhKj3WZoyq-85" vertex="1">
          <mxGeometry x="30" width="110" height="30" as="geometry" />
        </mxCell>
        <mxCell id="wo6G9_hcHMEhKj3WZoyq-91" value="location" style="shape=table;startSize=30;container=1;collapsible=1;childLayout=tableLayout;fixedRows=1;rowLines=0;fontStyle=1;align=center;resizeLast=1;labelBackgroundColor=none;strokeColor=#6c8ebf;fillColor=#007FFF;fontColor=#FFFFFF;" parent="1" vertex="1">
          <mxGeometry x="-220" y="304" width="140" height="130" as="geometry">
            <mxRectangle x="-620" y="560" width="60" height="30" as="alternateBounds" />
          </mxGeometry>
        </mxCell>
        <mxCell id="wo6G9_hcHMEhKj3WZoyq-92" value="" style="shape=partialRectangle;collapsible=0;dropTarget=0;pointerEvents=0;fillColor=none;top=0;left=0;bottom=1;right=0;points=[[0,0.5],[1,0.5]];portConstraint=eastwest;" parent="wo6G9_hcHMEhKj3WZoyq-91" vertex="1">
          <mxGeometry y="30" width="140" height="30" as="geometry" />
        </mxCell>
        <mxCell id="wo6G9_hcHMEhKj3WZoyq-93" value="PK" style="shape=partialRectangle;connectable=0;fillColor=none;top=0;left=0;bottom=0;right=0;fontStyle=1;overflow=hidden;" parent="wo6G9_hcHMEhKj3WZoyq-92" vertex="1">
          <mxGeometry width="30" height="30" as="geometry" />
        </mxCell>
        <mxCell id="wo6G9_hcHMEhKj3WZoyq-94" value="id" style="shape=partialRectangle;connectable=0;fillColor=none;top=0;left=0;bottom=0;right=0;align=left;spacingLeft=6;fontStyle=5;overflow=hidden;" parent="wo6G9_hcHMEhKj3WZoyq-92" vertex="1">
          <mxGeometry x="30" width="110" height="30" as="geometry" />
        </mxCell>
        <mxCell id="wo6G9_hcHMEhKj3WZoyq-95" value="" style="shape=partialRectangle;collapsible=0;dropTarget=0;pointerEvents=0;fillColor=none;top=0;left=0;bottom=0;right=0;points=[[0,0.5],[1,0.5]];portConstraint=eastwest;" parent="wo6G9_hcHMEhKj3WZoyq-91" vertex="1">
          <mxGeometry y="60" width="140" height="30" as="geometry" />
        </mxCell>
        <mxCell id="wo6G9_hcHMEhKj3WZoyq-96" value="" style="shape=partialRectangle;connectable=0;fillColor=none;top=0;left=0;bottom=0;right=0;editable=1;overflow=hidden;" parent="wo6G9_hcHMEhKj3WZoyq-95" vertex="1">
          <mxGeometry width="30" height="30" as="geometry" />
        </mxCell>
        <mxCell id="wo6G9_hcHMEhKj3WZoyq-97" value="name" style="shape=partialRectangle;connectable=0;fillColor=none;top=0;left=0;bottom=0;right=0;align=left;spacingLeft=6;overflow=hidden;" parent="wo6G9_hcHMEhKj3WZoyq-95" vertex="1">
          <mxGeometry x="30" width="110" height="30" as="geometry" />
        </mxCell>
        <mxCell id="wo6G9_hcHMEhKj3WZoyq-98" value="" style="shape=partialRectangle;collapsible=0;dropTarget=0;pointerEvents=0;fillColor=none;top=0;left=0;bottom=0;right=0;points=[[0,0.5],[1,0.5]];portConstraint=eastwest;" parent="wo6G9_hcHMEhKj3WZoyq-91" vertex="1">
          <mxGeometry y="90" width="140" height="30" as="geometry" />
        </mxCell>
        <mxCell id="wo6G9_hcHMEhKj3WZoyq-99" value="" style="shape=partialRectangle;connectable=0;fillColor=none;top=0;left=0;bottom=0;right=0;editable=1;overflow=hidden;" parent="wo6G9_hcHMEhKj3WZoyq-98" vertex="1">
          <mxGeometry width="30" height="30" as="geometry" />
        </mxCell>
        <mxCell id="wo6G9_hcHMEhKj3WZoyq-100" value="address" style="shape=partialRectangle;connectable=0;fillColor=none;top=0;left=0;bottom=0;right=0;align=left;spacingLeft=6;overflow=hidden;" parent="wo6G9_hcHMEhKj3WZoyq-98" vertex="1">
          <mxGeometry x="30" width="110" height="30" as="geometry" />
        </mxCell>
        <mxCell id="wo6G9_hcHMEhKj3WZoyq-6" value="" style="edgeStyle=entityRelationEdgeStyle;fontSize=12;html=1;endArrow=ERoneToMany;startArrow=ERmandOne;" parent="1" source="wo6G9_hcHMEhKj3WZoyq-92" target="wo6G9_hcHMEhKj3WZoyq-48" edge="1">
          <mxGeometry width="100" height="100" relative="1" as="geometry">
            <mxPoint x="-560" y="314" as="sourcePoint" />
            <mxPoint x="-460" y="214" as="targetPoint" />
          </mxGeometry>
        </mxCell>
        <mxCell id="wo6G9_hcHMEhKj3WZoyq-7" value="U a M" style="edgeLabel;html=1;align=center;verticalAlign=middle;resizable=0;points=[];fontColor=#000000;" parent="1" vertex="1" connectable="0">
          <mxGeometry x="-580.0043328375015" y="353.9971248724647" as="geometry">
            <mxPoint x="292" y="25" as="offset" />
          </mxGeometry>
        </mxCell>
        <mxCell id="wo6G9_hcHMEhKj3WZoyq-101" value="reservation" style="shape=table;startSize=30;container=1;collapsible=1;childLayout=tableLayout;fixedRows=1;rowLines=0;fontStyle=1;align=center;resizeLast=1;labelBackgroundColor=none;strokeColor=#6c8ebf;fillColor=#007FFF;fontColor=#FFFFFF;" parent="1" vertex="1">
          <mxGeometry x="-530" y="626.0799999999999" width="140" height="190" as="geometry">
            <mxRectangle x="-620" y="560" width="60" height="30" as="alternateBounds" />
          </mxGeometry>
        </mxCell>
        <mxCell id="wo6G9_hcHMEhKj3WZoyq-102" value="" style="shape=partialRectangle;collapsible=0;dropTarget=0;pointerEvents=0;fillColor=none;top=0;left=0;bottom=1;right=0;points=[[0,0.5],[1,0.5]];portConstraint=eastwest;" parent="wo6G9_hcHMEhKj3WZoyq-101" vertex="1">
          <mxGeometry y="30" width="140" height="30" as="geometry" />
        </mxCell>
        <mxCell id="wo6G9_hcHMEhKj3WZoyq-103" value="PK" style="shape=partialRectangle;connectable=0;fillColor=none;top=0;left=0;bottom=0;right=0;fontStyle=1;overflow=hidden;" parent="wo6G9_hcHMEhKj3WZoyq-102" vertex="1">
          <mxGeometry width="30" height="30" as="geometry" />
        </mxCell>
        <mxCell id="wo6G9_hcHMEhKj3WZoyq-104" value="id" style="shape=partialRectangle;connectable=0;fillColor=none;top=0;left=0;bottom=0;right=0;align=left;spacingLeft=6;fontStyle=5;overflow=hidden;" parent="wo6G9_hcHMEhKj3WZoyq-102" vertex="1">
          <mxGeometry x="30" width="110" height="30" as="geometry" />
        </mxCell>
        <mxCell id="wo6G9_hcHMEhKj3WZoyq-105" value="" style="shape=partialRectangle;collapsible=0;dropTarget=0;pointerEvents=0;fillColor=none;top=0;left=0;bottom=0;right=0;points=[[0,0.5],[1,0.5]];portConstraint=eastwest;" parent="wo6G9_hcHMEhKj3WZoyq-101" vertex="1">
          <mxGeometry y="60" width="140" height="30" as="geometry" />
        </mxCell>
        <mxCell id="wo6G9_hcHMEhKj3WZoyq-106" value="FK" style="shape=partialRectangle;connectable=0;fillColor=none;top=0;left=0;bottom=0;right=0;editable=1;overflow=hidden;" parent="wo6G9_hcHMEhKj3WZoyq-105" vertex="1">
          <mxGeometry width="30" height="30" as="geometry" />
        </mxCell>
        <mxCell id="wo6G9_hcHMEhKj3WZoyq-107" value="desk_id" style="shape=partialRectangle;connectable=0;fillColor=none;top=0;left=0;bottom=0;right=0;align=left;spacingLeft=6;overflow=hidden;" parent="wo6G9_hcHMEhKj3WZoyq-105" vertex="1">
          <mxGeometry x="30" width="110" height="30" as="geometry" />
        </mxCell>
        <mxCell id="wo6G9_hcHMEhKj3WZoyq-108" value="" style="shape=partialRectangle;collapsible=0;dropTarget=0;pointerEvents=0;fillColor=none;top=0;left=0;bottom=0;right=0;points=[[0,0.5],[1,0.5]];portConstraint=eastwest;" parent="wo6G9_hcHMEhKj3WZoyq-101" vertex="1">
          <mxGeometry y="90" width="140" height="30" as="geometry" />
        </mxCell>
        <mxCell id="wo6G9_hcHMEhKj3WZoyq-109" value="FK" style="shape=partialRectangle;connectable=0;fillColor=none;top=0;left=0;bottom=0;right=0;editable=1;overflow=hidden;" parent="wo6G9_hcHMEhKj3WZoyq-108" vertex="1">
          <mxGeometry width="30" height="30" as="geometry" />
        </mxCell>
        <mxCell id="wo6G9_hcHMEhKj3WZoyq-110" value="user_id" style="shape=partialRectangle;connectable=0;fillColor=none;top=0;left=0;bottom=0;right=0;align=left;spacingLeft=6;overflow=hidden;" parent="wo6G9_hcHMEhKj3WZoyq-108" vertex="1">
          <mxGeometry x="30" width="110" height="30" as="geometry" />
        </mxCell>
        <mxCell id="wo6G9_hcHMEhKj3WZoyq-111" value="" style="shape=partialRectangle;collapsible=0;dropTarget=0;pointerEvents=0;fillColor=none;top=0;left=0;bottom=0;right=0;points=[[0,0.5],[1,0.5]];portConstraint=eastwest;" parent="wo6G9_hcHMEhKj3WZoyq-101" vertex="1">
          <mxGeometry y="120" width="140" height="30" as="geometry" />
        </mxCell>
        <mxCell id="wo6G9_hcHMEhKj3WZoyq-112" value="" style="shape=partialRectangle;connectable=0;fillColor=none;top=0;left=0;bottom=0;right=0;editable=1;overflow=hidden;" parent="wo6G9_hcHMEhKj3WZoyq-111" vertex="1">
          <mxGeometry width="30" height="30" as="geometry" />
        </mxCell>
        <mxCell id="wo6G9_hcHMEhKj3WZoyq-113" value="date" style="shape=partialRectangle;connectable=0;fillColor=none;top=0;left=0;bottom=0;right=0;align=left;spacingLeft=6;overflow=hidden;" parent="wo6G9_hcHMEhKj3WZoyq-111" vertex="1">
          <mxGeometry x="30" width="110" height="30" as="geometry" />
        </mxCell>
        <mxCell id="wo6G9_hcHMEhKj3WZoyq-177" value="" style="shape=partialRectangle;collapsible=0;dropTarget=0;pointerEvents=0;fillColor=none;top=0;left=0;bottom=0;right=0;points=[[0,0.5],[1,0.5]];portConstraint=eastwest;" parent="wo6G9_hcHMEhKj3WZoyq-101" vertex="1">
          <mxGeometry y="150" width="140" height="30" as="geometry" />
        </mxCell>
        <mxCell id="wo6G9_hcHMEhKj3WZoyq-178" value="" style="shape=partialRectangle;connectable=0;fillColor=none;top=0;left=0;bottom=0;right=0;editable=1;overflow=hidden;" parent="wo6G9_hcHMEhKj3WZoyq-177" vertex="1">
          <mxGeometry width="30" height="30" as="geometry" />
        </mxCell>
        <mxCell id="wo6G9_hcHMEhKj3WZoyq-179" value="status" style="shape=partialRectangle;connectable=0;fillColor=none;top=0;left=0;bottom=0;right=0;align=left;spacingLeft=6;overflow=hidden;" parent="wo6G9_hcHMEhKj3WZoyq-177" vertex="1">
          <mxGeometry x="30" width="110" height="30" as="geometry" />
        </mxCell>
        <mxCell id="wo6G9_hcHMEhKj3WZoyq-114" value="users" style="shape=table;startSize=30;container=1;collapsible=1;childLayout=tableLayout;fixedRows=1;rowLines=0;fontStyle=1;align=center;resizeLast=1;labelBackgroundColor=none;strokeColor=#6c8ebf;fillColor=#007FFF;fontColor=#FFFFFF;" parent="1" vertex="1">
          <mxGeometry x="-1430" y="379.9999999999999" width="140" height="340" as="geometry">
            <mxRectangle x="-620" y="560" width="60" height="30" as="alternateBounds" />
          </mxGeometry>
        </mxCell>
        <mxCell id="wo6G9_hcHMEhKj3WZoyq-115" value="" style="shape=partialRectangle;collapsible=0;dropTarget=0;pointerEvents=0;fillColor=none;top=0;left=0;bottom=1;right=0;points=[[0,0.5],[1,0.5]];portConstraint=eastwest;" parent="wo6G9_hcHMEhKj3WZoyq-114" vertex="1">
          <mxGeometry y="30" width="140" height="30" as="geometry" />
        </mxCell>
        <mxCell id="wo6G9_hcHMEhKj3WZoyq-116" value="PK" style="shape=partialRectangle;connectable=0;fillColor=none;top=0;left=0;bottom=0;right=0;fontStyle=1;overflow=hidden;" parent="wo6G9_hcHMEhKj3WZoyq-115" vertex="1">
          <mxGeometry width="30" height="30" as="geometry" />
        </mxCell>
        <mxCell id="wo6G9_hcHMEhKj3WZoyq-117" value="email" style="shape=partialRectangle;connectable=0;fillColor=none;top=0;left=0;bottom=0;right=0;align=left;spacingLeft=6;fontStyle=5;overflow=hidden;" parent="wo6G9_hcHMEhKj3WZoyq-115" vertex="1">
          <mxGeometry x="30" width="110" height="30" as="geometry" />
        </mxCell>
        <mxCell id="wo6G9_hcHMEhKj3WZoyq-118" value="" style="shape=partialRectangle;collapsible=0;dropTarget=0;pointerEvents=0;fillColor=none;top=0;left=0;bottom=0;right=0;points=[[0,0.5],[1,0.5]];portConstraint=eastwest;" parent="wo6G9_hcHMEhKj3WZoyq-114" vertex="1">
          <mxGeometry y="60" width="140" height="30" as="geometry" />
        </mxCell>
        <mxCell id="wo6G9_hcHMEhKj3WZoyq-119" value="" style="shape=partialRectangle;connectable=0;fillColor=none;top=0;left=0;bottom=0;right=0;editable=1;overflow=hidden;" parent="wo6G9_hcHMEhKj3WZoyq-118" vertex="1">
          <mxGeometry width="30" height="30" as="geometry" />
        </mxCell>
        <mxCell id="wo6G9_hcHMEhKj3WZoyq-120" value="username" style="shape=partialRectangle;connectable=0;fillColor=none;top=0;left=0;bottom=0;right=0;align=left;spacingLeft=6;overflow=hidden;" parent="wo6G9_hcHMEhKj3WZoyq-118" vertex="1">
          <mxGeometry x="30" width="110" height="30" as="geometry" />
        </mxCell>
        <mxCell id="wo6G9_hcHMEhKj3WZoyq-121" value="" style="shape=partialRectangle;collapsible=0;dropTarget=0;pointerEvents=0;fillColor=none;top=0;left=0;bottom=0;right=0;points=[[0,0.5],[1,0.5]];portConstraint=eastwest;" parent="wo6G9_hcHMEhKj3WZoyq-114" vertex="1">
          <mxGeometry y="90" width="140" height="30" as="geometry" />
        </mxCell>
        <mxCell id="wo6G9_hcHMEhKj3WZoyq-122" value="" style="shape=partialRectangle;connectable=0;fillColor=none;top=0;left=0;bottom=0;right=0;editable=1;overflow=hidden;" parent="wo6G9_hcHMEhKj3WZoyq-121" vertex="1">
          <mxGeometry width="30" height="30" as="geometry" />
        </mxCell>
        <mxCell id="wo6G9_hcHMEhKj3WZoyq-123" value="password" style="shape=partialRectangle;connectable=0;fillColor=none;top=0;left=0;bottom=0;right=0;align=left;spacingLeft=6;overflow=hidden;" parent="wo6G9_hcHMEhKj3WZoyq-121" vertex="1">
          <mxGeometry x="30" width="110" height="30" as="geometry" />
        </mxCell>
        <mxCell id="wo6G9_hcHMEhKj3WZoyq-124" value="" style="shape=partialRectangle;collapsible=0;dropTarget=0;pointerEvents=0;fillColor=none;top=0;left=0;bottom=0;right=0;points=[[0,0.5],[1,0.5]];portConstraint=eastwest;" parent="wo6G9_hcHMEhKj3WZoyq-114" vertex="1">
          <mxGeometry y="120" width="140" height="30" as="geometry" />
        </mxCell>
        <mxCell id="wo6G9_hcHMEhKj3WZoyq-125" value="" style="shape=partialRectangle;connectable=0;fillColor=none;top=0;left=0;bottom=0;right=0;editable=1;overflow=hidden;" parent="wo6G9_hcHMEhKj3WZoyq-124" vertex="1">
          <mxGeometry width="30" height="30" as="geometry" />
        </mxCell>
        <mxCell id="wo6G9_hcHMEhKj3WZoyq-126" value="status" style="shape=partialRectangle;connectable=0;fillColor=none;top=0;left=0;bottom=0;right=0;align=left;spacingLeft=6;overflow=hidden;" parent="wo6G9_hcHMEhKj3WZoyq-124" vertex="1">
          <mxGeometry x="30" width="110" height="30" as="geometry" />
        </mxCell>
        <mxCell id="wo6G9_hcHMEhKj3WZoyq-127" value="" style="shape=partialRectangle;collapsible=0;dropTarget=0;pointerEvents=0;fillColor=none;top=0;left=0;bottom=0;right=0;points=[[0,0.5],[1,0.5]];portConstraint=eastwest;" parent="wo6G9_hcHMEhKj3WZoyq-114" vertex="1">
          <mxGeometry y="150" width="140" height="30" as="geometry" />
        </mxCell>
        <mxCell id="wo6G9_hcHMEhKj3WZoyq-128" value="" style="shape=partialRectangle;connectable=0;fillColor=none;top=0;left=0;bottom=0;right=0;editable=1;overflow=hidden;" parent="wo6G9_hcHMEhKj3WZoyq-127" vertex="1">
          <mxGeometry width="30" height="30" as="geometry" />
        </mxCell>
        <mxCell id="wo6G9_hcHMEhKj3WZoyq-129" value="first_name" style="shape=partialRectangle;connectable=0;fillColor=none;top=0;left=0;bottom=0;right=0;align=left;spacingLeft=6;overflow=hidden;" parent="wo6G9_hcHMEhKj3WZoyq-127" vertex="1">
          <mxGeometry x="30" width="110" height="30" as="geometry" />
        </mxCell>
        <mxCell id="wo6G9_hcHMEhKj3WZoyq-130" value="" style="shape=partialRectangle;collapsible=0;dropTarget=0;pointerEvents=0;fillColor=none;top=0;left=0;bottom=0;right=0;points=[[0,0.5],[1,0.5]];portConstraint=eastwest;" parent="wo6G9_hcHMEhKj3WZoyq-114" vertex="1">
          <mxGeometry y="180" width="140" height="30" as="geometry" />
        </mxCell>
        <mxCell id="wo6G9_hcHMEhKj3WZoyq-131" value="" style="shape=partialRectangle;connectable=0;fillColor=none;top=0;left=0;bottom=0;right=0;editable=1;overflow=hidden;" parent="wo6G9_hcHMEhKj3WZoyq-130" vertex="1">
          <mxGeometry width="30" height="30" as="geometry" />
        </mxCell>
        <mxCell id="wo6G9_hcHMEhKj3WZoyq-132" value="last_name" style="shape=partialRectangle;connectable=0;fillColor=none;top=0;left=0;bottom=0;right=0;align=left;spacingLeft=6;overflow=hidden;" parent="wo6G9_hcHMEhKj3WZoyq-130" vertex="1">
          <mxGeometry x="30" width="110" height="30" as="geometry" />
        </mxCell>
        <mxCell id="wo6G9_hcHMEhKj3WZoyq-133" value="" style="shape=partialRectangle;collapsible=0;dropTarget=0;pointerEvents=0;fillColor=none;top=0;left=0;bottom=0;right=0;points=[[0,0.5],[1,0.5]];portConstraint=eastwest;" parent="wo6G9_hcHMEhKj3WZoyq-114" vertex="1">
          <mxGeometry y="210" width="140" height="30" as="geometry" />
        </mxCell>
        <mxCell id="wo6G9_hcHMEhKj3WZoyq-134" value="" style="shape=partialRectangle;connectable=0;fillColor=none;top=0;left=0;bottom=0;right=0;editable=1;overflow=hidden;" parent="wo6G9_hcHMEhKj3WZoyq-133" vertex="1">
          <mxGeometry width="30" height="30" as="geometry" />
        </mxCell>
        <mxCell id="wo6G9_hcHMEhKj3WZoyq-135" value="birth_date" style="shape=partialRectangle;connectable=0;fillColor=none;top=0;left=0;bottom=0;right=0;align=left;spacingLeft=6;overflow=hidden;" parent="wo6G9_hcHMEhKj3WZoyq-133" vertex="1">
          <mxGeometry x="30" width="110" height="30" as="geometry" />
        </mxCell>
        <mxCell id="wo6G9_hcHMEhKj3WZoyq-136" value="" style="shape=partialRectangle;collapsible=0;dropTarget=0;pointerEvents=0;fillColor=none;top=0;left=0;bottom=0;right=0;points=[[0,0.5],[1,0.5]];portConstraint=eastwest;" parent="wo6G9_hcHMEhKj3WZoyq-114" vertex="1">
          <mxGeometry y="240" width="140" height="30" as="geometry" />
        </mxCell>
        <mxCell id="wo6G9_hcHMEhKj3WZoyq-137" value="FK" style="shape=partialRectangle;connectable=0;fillColor=none;top=0;left=0;bottom=0;right=0;editable=1;overflow=hidden;" parent="wo6G9_hcHMEhKj3WZoyq-136" vertex="1">
          <mxGeometry width="30" height="30" as="geometry" />
        </mxCell>
        <mxCell id="wo6G9_hcHMEhKj3WZoyq-138" value="type_id" style="shape=partialRectangle;connectable=0;fillColor=none;top=0;left=0;bottom=0;right=0;align=left;spacingLeft=6;overflow=hidden;" parent="wo6G9_hcHMEhKj3WZoyq-136" vertex="1">
          <mxGeometry x="30" width="110" height="30" as="geometry" />
        </mxCell>
        <mxCell id="wo6G9_hcHMEhKj3WZoyq-139" value="" style="shape=partialRectangle;collapsible=0;dropTarget=0;pointerEvents=0;fillColor=none;top=0;left=0;bottom=0;right=0;points=[[0,0.5],[1,0.5]];portConstraint=eastwest;" parent="wo6G9_hcHMEhKj3WZoyq-114" vertex="1">
          <mxGeometry y="270" width="140" height="30" as="geometry" />
        </mxCell>
        <mxCell id="wo6G9_hcHMEhKj3WZoyq-140" value="" style="shape=partialRectangle;connectable=0;fillColor=none;top=0;left=0;bottom=0;right=0;editable=1;overflow=hidden;" parent="wo6G9_hcHMEhKj3WZoyq-139" vertex="1">
          <mxGeometry width="30" height="30" as="geometry" />
        </mxCell>
        <mxCell id="wo6G9_hcHMEhKj3WZoyq-141" value="cambiopass" style="shape=partialRectangle;connectable=0;fillColor=none;top=0;left=0;bottom=0;right=0;align=left;spacingLeft=6;overflow=hidden;" parent="wo6G9_hcHMEhKj3WZoyq-139" vertex="1">
          <mxGeometry x="30" width="110" height="30" as="geometry" />
        </mxCell>
        <mxCell id="wo6G9_hcHMEhKj3WZoyq-142" value="" style="shape=partialRectangle;collapsible=0;dropTarget=0;pointerEvents=0;fillColor=none;top=0;left=0;bottom=0;right=0;points=[[0,0.5],[1,0.5]];portConstraint=eastwest;" parent="wo6G9_hcHMEhKj3WZoyq-114" vertex="1">
          <mxGeometry y="300" width="140" height="30" as="geometry" />
        </mxCell>
        <mxCell id="wo6G9_hcHMEhKj3WZoyq-143" value="" style="shape=partialRectangle;connectable=0;fillColor=none;top=0;left=0;bottom=0;right=0;editable=1;overflow=hidden;" parent="wo6G9_hcHMEhKj3WZoyq-142" vertex="1">
          <mxGeometry width="30" height="30" as="geometry" />
        </mxCell>
        <mxCell id="wo6G9_hcHMEhKj3WZoyq-144" value="block" style="shape=partialRectangle;connectable=0;fillColor=none;top=0;left=0;bottom=0;right=0;align=left;spacingLeft=6;overflow=hidden;" parent="wo6G9_hcHMEhKj3WZoyq-142" vertex="1">
          <mxGeometry x="30" width="110" height="30" as="geometry" />
        </mxCell>
        <mxCell id="wo6G9_hcHMEhKj3WZoyq-145" value="type_user" style="shape=table;startSize=30;container=1;collapsible=1;childLayout=tableLayout;fixedRows=1;rowLines=0;fontStyle=1;align=center;resizeLast=1;labelBackgroundColor=none;strokeColor=#6c8ebf;fillColor=#007FFF;fontColor=#FFFFFF;" parent="1" vertex="1">
          <mxGeometry x="-1210" y="620" width="140" height="190" as="geometry">
            <mxRectangle x="-620" y="560" width="60" height="30" as="alternateBounds" />
          </mxGeometry>
        </mxCell>
        <mxCell id="wo6G9_hcHMEhKj3WZoyq-146" value="" style="shape=partialRectangle;collapsible=0;dropTarget=0;pointerEvents=0;fillColor=none;top=0;left=0;bottom=1;right=0;points=[[0,0.5],[1,0.5]];portConstraint=eastwest;" parent="wo6G9_hcHMEhKj3WZoyq-145" vertex="1">
          <mxGeometry y="30" width="140" height="30" as="geometry" />
        </mxCell>
        <mxCell id="wo6G9_hcHMEhKj3WZoyq-147" value="PK" style="shape=partialRectangle;connectable=0;fillColor=none;top=0;left=0;bottom=0;right=0;fontStyle=1;overflow=hidden;" parent="wo6G9_hcHMEhKj3WZoyq-146" vertex="1">
          <mxGeometry width="30" height="30" as="geometry" />
        </mxCell>
        <mxCell id="wo6G9_hcHMEhKj3WZoyq-148" value="id" style="shape=partialRectangle;connectable=0;fillColor=none;top=0;left=0;bottom=0;right=0;align=left;spacingLeft=6;fontStyle=5;overflow=hidden;" parent="wo6G9_hcHMEhKj3WZoyq-146" vertex="1">
          <mxGeometry x="30" width="110" height="30" as="geometry" />
        </mxCell>
        <mxCell id="wo6G9_hcHMEhKj3WZoyq-149" value="" style="shape=partialRectangle;collapsible=0;dropTarget=0;pointerEvents=0;fillColor=none;top=0;left=0;bottom=0;right=0;points=[[0,0.5],[1,0.5]];portConstraint=eastwest;" parent="wo6G9_hcHMEhKj3WZoyq-145" vertex="1">
          <mxGeometry y="60" width="140" height="30" as="geometry" />
        </mxCell>
        <mxCell id="wo6G9_hcHMEhKj3WZoyq-150" value="" style="shape=partialRectangle;connectable=0;fillColor=none;top=0;left=0;bottom=0;right=0;editable=1;overflow=hidden;" parent="wo6G9_hcHMEhKj3WZoyq-149" vertex="1">
          <mxGeometry width="30" height="30" as="geometry" />
        </mxCell>
        <mxCell id="wo6G9_hcHMEhKj3WZoyq-151" value="name" style="shape=partialRectangle;connectable=0;fillColor=none;top=0;left=0;bottom=0;right=0;align=left;spacingLeft=6;overflow=hidden;" parent="wo6G9_hcHMEhKj3WZoyq-149" vertex="1">
          <mxGeometry x="30" width="110" height="30" as="geometry" />
        </mxCell>
        <mxCell id="wo6G9_hcHMEhKj3WZoyq-152" value="" style="shape=partialRectangle;collapsible=0;dropTarget=0;pointerEvents=0;fillColor=none;top=0;left=0;bottom=0;right=0;points=[[0,0.5],[1,0.5]];portConstraint=eastwest;" parent="wo6G9_hcHMEhKj3WZoyq-145" vertex="1">
          <mxGeometry y="90" width="140" height="30" as="geometry" />
        </mxCell>
        <mxCell id="wo6G9_hcHMEhKj3WZoyq-153" value="" style="shape=partialRectangle;connectable=0;fillColor=none;top=0;left=0;bottom=0;right=0;editable=1;overflow=hidden;" parent="wo6G9_hcHMEhKj3WZoyq-152" vertex="1">
          <mxGeometry width="30" height="30" as="geometry" />
        </mxCell>
        <mxCell id="wo6G9_hcHMEhKj3WZoyq-154" value="load" style="shape=partialRectangle;connectable=0;fillColor=none;top=0;left=0;bottom=0;right=0;align=left;spacingLeft=6;overflow=hidden;" parent="wo6G9_hcHMEhKj3WZoyq-152" vertex="1">
          <mxGeometry x="30" width="110" height="30" as="geometry" />
        </mxCell>
        <mxCell id="wo6G9_hcHMEhKj3WZoyq-155" value="" style="shape=partialRectangle;collapsible=0;dropTarget=0;pointerEvents=0;fillColor=none;top=0;left=0;bottom=0;right=0;points=[[0,0.5],[1,0.5]];portConstraint=eastwest;" parent="wo6G9_hcHMEhKj3WZoyq-145" vertex="1">
          <mxGeometry y="120" width="140" height="30" as="geometry" />
        </mxCell>
        <mxCell id="wo6G9_hcHMEhKj3WZoyq-156" value="" style="shape=partialRectangle;connectable=0;fillColor=none;top=0;left=0;bottom=0;right=0;editable=1;overflow=hidden;" parent="wo6G9_hcHMEhKj3WZoyq-155" vertex="1">
          <mxGeometry width="30" height="30" as="geometry" />
        </mxCell>
        <mxCell id="wo6G9_hcHMEhKj3WZoyq-157" value="response" style="shape=partialRectangle;connectable=0;fillColor=none;top=0;left=0;bottom=0;right=0;align=left;spacingLeft=6;overflow=hidden;" parent="wo6G9_hcHMEhKj3WZoyq-155" vertex="1">
          <mxGeometry x="30" width="110" height="30" as="geometry" />
        </mxCell>
        <mxCell id="wo6G9_hcHMEhKj3WZoyq-158" value="" style="shape=partialRectangle;collapsible=0;dropTarget=0;pointerEvents=0;fillColor=none;top=0;left=0;bottom=0;right=0;points=[[0,0.5],[1,0.5]];portConstraint=eastwest;" parent="wo6G9_hcHMEhKj3WZoyq-145" vertex="1">
          <mxGeometry y="150" width="140" height="30" as="geometry" />
        </mxCell>
        <mxCell id="wo6G9_hcHMEhKj3WZoyq-159" value="" style="shape=partialRectangle;connectable=0;fillColor=none;top=0;left=0;bottom=0;right=0;editable=1;overflow=hidden;" parent="wo6G9_hcHMEhKj3WZoyq-158" vertex="1">
          <mxGeometry width="30" height="30" as="geometry" />
        </mxCell>
        <mxCell id="wo6G9_hcHMEhKj3WZoyq-160" value="admin" style="shape=partialRectangle;connectable=0;fillColor=none;top=0;left=0;bottom=0;right=0;align=left;spacingLeft=6;overflow=hidden;" parent="wo6G9_hcHMEhKj3WZoyq-158" vertex="1">
          <mxGeometry x="30" width="110" height="30" as="geometry" />
        </mxCell>
        <mxCell id="wo6G9_hcHMEhKj3WZoyq-161" value="" style="edgeStyle=entityRelationEdgeStyle;fontSize=12;html=1;endArrow=ERoneToMany;startArrow=ERmandOne;" parent="1" source="wo6G9_hcHMEhKj3WZoyq-136" target="wo6G9_hcHMEhKj3WZoyq-146" edge="1">
          <mxGeometry width="100" height="100" relative="1" as="geometry">
            <mxPoint x="-1280" y="434.9999999999999" as="sourcePoint" />
            <mxPoint x="-520" y="741.0799999999999" as="targetPoint" />
          </mxGeometry>
        </mxCell>
        <mxCell id="wo6G9_hcHMEhKj3WZoyq-162" value="U a M" style="edgeLabel;html=1;align=center;verticalAlign=middle;resizable=0;points=[];" parent="wo6G9_hcHMEhKj3WZoyq-161" vertex="1" connectable="0">
          <mxGeometry x="-0.0439" y="-2" relative="1" as="geometry">
            <mxPoint as="offset" />
          </mxGeometry>
        </mxCell>
        <mxCell id="wo6G9_hcHMEhKj3WZoyq-163" value="used" style="shape=table;startSize=30;container=1;collapsible=1;childLayout=tableLayout;fixedRows=1;rowLines=0;fontStyle=1;align=center;resizeLast=1;labelBackgroundColor=none;strokeColor=#6c8ebf;fillColor=#007FFF;fontColor=#FFFFFF;" parent="1" vertex="1">
          <mxGeometry x="-270" y="626.0799999999999" width="140" height="160" as="geometry">
            <mxRectangle x="-620" y="560" width="60" height="30" as="alternateBounds" />
          </mxGeometry>
        </mxCell>
        <mxCell id="wo6G9_hcHMEhKj3WZoyq-164" value="" style="shape=partialRectangle;collapsible=0;dropTarget=0;pointerEvents=0;fillColor=none;top=0;left=0;bottom=1;right=0;points=[[0,0.5],[1,0.5]];portConstraint=eastwest;" parent="wo6G9_hcHMEhKj3WZoyq-163" vertex="1">
          <mxGeometry y="30" width="140" height="30" as="geometry" />
        </mxCell>
        <mxCell id="wo6G9_hcHMEhKj3WZoyq-165" value="PK" style="shape=partialRectangle;connectable=0;fillColor=none;top=0;left=0;bottom=0;right=0;fontStyle=1;overflow=hidden;" parent="wo6G9_hcHMEhKj3WZoyq-164" vertex="1">
          <mxGeometry width="30" height="30" as="geometry" />
        </mxCell>
        <mxCell id="wo6G9_hcHMEhKj3WZoyq-166" value="id" style="shape=partialRectangle;connectable=0;fillColor=none;top=0;left=0;bottom=0;right=0;align=left;spacingLeft=6;fontStyle=5;overflow=hidden;" parent="wo6G9_hcHMEhKj3WZoyq-164" vertex="1">
          <mxGeometry x="30" width="110" height="30" as="geometry" />
        </mxCell>
        <mxCell id="wo6G9_hcHMEhKj3WZoyq-167" value="" style="shape=partialRectangle;collapsible=0;dropTarget=0;pointerEvents=0;fillColor=none;top=0;left=0;bottom=0;right=0;points=[[0,0.5],[1,0.5]];portConstraint=eastwest;" parent="wo6G9_hcHMEhKj3WZoyq-163" vertex="1">
          <mxGeometry y="60" width="140" height="30" as="geometry" />
        </mxCell>
        <mxCell id="wo6G9_hcHMEhKj3WZoyq-168" value="FK" style="shape=partialRectangle;connectable=0;fillColor=none;top=0;left=0;bottom=0;right=0;editable=1;overflow=hidden;" parent="wo6G9_hcHMEhKj3WZoyq-167" vertex="1">
          <mxGeometry width="30" height="30" as="geometry" />
        </mxCell>
        <mxCell id="wo6G9_hcHMEhKj3WZoyq-169" value="reservation_id" style="shape=partialRectangle;connectable=0;fillColor=none;top=0;left=0;bottom=0;right=0;align=left;spacingLeft=6;overflow=hidden;" parent="wo6G9_hcHMEhKj3WZoyq-167" vertex="1">
          <mxGeometry x="30" width="110" height="30" as="geometry" />
        </mxCell>
        <mxCell id="wo6G9_hcHMEhKj3WZoyq-170" value="" style="shape=partialRectangle;collapsible=0;dropTarget=0;pointerEvents=0;fillColor=none;top=0;left=0;bottom=0;right=0;points=[[0,0.5],[1,0.5]];portConstraint=eastwest;" parent="wo6G9_hcHMEhKj3WZoyq-163" vertex="1">
          <mxGeometry y="90" width="140" height="30" as="geometry" />
        </mxCell>
        <mxCell id="wo6G9_hcHMEhKj3WZoyq-171" value="" style="shape=partialRectangle;connectable=0;fillColor=none;top=0;left=0;bottom=0;right=0;editable=1;overflow=hidden;" parent="wo6G9_hcHMEhKj3WZoyq-170" vertex="1">
          <mxGeometry width="30" height="30" as="geometry" />
        </mxCell>
        <mxCell id="wo6G9_hcHMEhKj3WZoyq-172" value="checkin" style="shape=partialRectangle;connectable=0;fillColor=none;top=0;left=0;bottom=0;right=0;align=left;spacingLeft=6;overflow=hidden;" parent="wo6G9_hcHMEhKj3WZoyq-170" vertex="1">
          <mxGeometry x="30" width="110" height="30" as="geometry" />
        </mxCell>
        <mxCell id="wo6G9_hcHMEhKj3WZoyq-173" value="" style="shape=partialRectangle;collapsible=0;dropTarget=0;pointerEvents=0;fillColor=none;top=0;left=0;bottom=0;right=0;points=[[0,0.5],[1,0.5]];portConstraint=eastwest;" parent="wo6G9_hcHMEhKj3WZoyq-163" vertex="1">
          <mxGeometry y="120" width="140" height="30" as="geometry" />
        </mxCell>
        <mxCell id="wo6G9_hcHMEhKj3WZoyq-174" value="" style="shape=partialRectangle;connectable=0;fillColor=none;top=0;left=0;bottom=0;right=0;editable=1;overflow=hidden;" parent="wo6G9_hcHMEhKj3WZoyq-173" vertex="1">
          <mxGeometry width="30" height="30" as="geometry" />
        </mxCell>
        <mxCell id="wo6G9_hcHMEhKj3WZoyq-175" value="checkout" style="shape=partialRectangle;connectable=0;fillColor=none;top=0;left=0;bottom=0;right=0;align=left;spacingLeft=6;overflow=hidden;" parent="wo6G9_hcHMEhKj3WZoyq-173" vertex="1">
          <mxGeometry x="30" width="110" height="30" as="geometry" />
        </mxCell>
        <mxCell id="wo6G9_hcHMEhKj3WZoyq-176" value="" style="edgeStyle=entityRelationEdgeStyle;fontSize=12;html=1;endArrow=ERoneToMany;startArrow=ERmandOne;" parent="1" source="wo6G9_hcHMEhKj3WZoyq-167" target="wo6G9_hcHMEhKj3WZoyq-102" edge="1">
          <mxGeometry width="100" height="100" relative="1" as="geometry">
            <mxPoint x="-210" y="359" as="sourcePoint" />
            <mxPoint x="-340" y="419" as="targetPoint" />
          </mxGeometry>
        </mxCell>
        <mxCell id="kxgCFuEd_AuhYG7l0Zz3-17" value="" style="edgeStyle=entityRelationEdgeStyle;fontSize=12;html=1;endArrow=ERoneToMany;startArrow=ERmandOne;exitX=1;exitY=0.5;exitDx=0;exitDy=0;" edge="1" parent="1" source="wo6G9_hcHMEhKj3WZoyq-115" target="kxgCFuEd_AuhYG7l0Zz3-5">
          <mxGeometry width="100" height="100" relative="1" as="geometry">
            <mxPoint x="-1280" y="434.9999999999999" as="sourcePoint" />
            <mxPoint x="-520" y="741.0799999999999" as="targetPoint" />
          </mxGeometry>
        </mxCell>
        <mxCell id="kxgCFuEd_AuhYG7l0Zz3-18" value="U a M" style="edgeLabel;html=1;align=center;verticalAlign=middle;resizable=0;points=[];" vertex="1" connectable="0" parent="kxgCFuEd_AuhYG7l0Zz3-17">
          <mxGeometry x="-0.0439" y="-2" relative="1" as="geometry">
            <mxPoint as="offset" />
          </mxGeometry>
        </mxCell>
        <mxCell id="kxgCFuEd_AuhYG7l0Zz3-19" value="" style="edgeStyle=entityRelationEdgeStyle;fontSize=12;html=1;endArrow=ERoneToMany;startArrow=ERmandOne;" edge="1" parent="1" source="wo6G9_hcHMEhKj3WZoyq-42" target="kxgCFuEd_AuhYG7l0Zz3-8">
          <mxGeometry width="100" height="100" relative="1" as="geometry">
            <mxPoint x="-670" y="503.5" as="sourcePoint" />
            <mxPoint x="-820" y="503.5" as="targetPoint" />
          </mxGeometry>
        </mxCell>
        <mxCell id="kxgCFuEd_AuhYG7l0Zz3-20" value="U a M" style="edgeLabel;html=1;align=center;verticalAlign=middle;resizable=0;points=[];fontColor=#000000;" vertex="1" connectable="0" parent="kxgCFuEd_AuhYG7l0Zz3-19">
          <mxGeometry x="-0.0073" y="2" relative="1" as="geometry">
            <mxPoint x="9.530000000000001" y="1.500000000000003" as="offset" />
          </mxGeometry>
        </mxCell>
        <mxCell id="kxgCFuEd_AuhYG7l0Zz3-1" value="access" style="shape=table;startSize=30;container=1;collapsible=1;childLayout=tableLayout;fixedRows=1;rowLines=0;fontStyle=1;align=center;resizeLast=1;labelBackgroundColor=none;strokeColor=#6c8ebf;fillColor=#007FFF;fontColor=#FFFFFF;" vertex="1" parent="1">
          <mxGeometry x="-950" y="414" width="140" height="130" as="geometry">
            <mxRectangle x="-620" y="560" width="60" height="30" as="alternateBounds" />
          </mxGeometry>
        </mxCell>
        <mxCell id="kxgCFuEd_AuhYG7l0Zz3-2" value="" style="shape=partialRectangle;collapsible=0;dropTarget=0;pointerEvents=0;fillColor=none;top=0;left=0;bottom=1;right=0;points=[[0,0.5],[1,0.5]];portConstraint=eastwest;" vertex="1" parent="kxgCFuEd_AuhYG7l0Zz3-1">
          <mxGeometry y="30" width="140" height="30" as="geometry" />
        </mxCell>
        <mxCell id="kxgCFuEd_AuhYG7l0Zz3-3" value="PK" style="shape=partialRectangle;connectable=0;fillColor=none;top=0;left=0;bottom=0;right=0;fontStyle=1;overflow=hidden;" vertex="1" parent="kxgCFuEd_AuhYG7l0Zz3-2">
          <mxGeometry width="30" height="30" as="geometry" />
        </mxCell>
        <mxCell id="kxgCFuEd_AuhYG7l0Zz3-4" value="id" style="shape=partialRectangle;connectable=0;fillColor=none;top=0;left=0;bottom=0;right=0;align=left;spacingLeft=6;fontStyle=5;overflow=hidden;" vertex="1" parent="kxgCFuEd_AuhYG7l0Zz3-2">
          <mxGeometry x="30" width="110" height="30" as="geometry" />
        </mxCell>
        <mxCell id="kxgCFuEd_AuhYG7l0Zz3-5" value="" style="shape=partialRectangle;collapsible=0;dropTarget=0;pointerEvents=0;fillColor=none;top=0;left=0;bottom=0;right=0;points=[[0,0.5],[1,0.5]];portConstraint=eastwest;" vertex="1" parent="kxgCFuEd_AuhYG7l0Zz3-1">
          <mxGeometry y="60" width="140" height="30" as="geometry" />
        </mxCell>
        <mxCell id="kxgCFuEd_AuhYG7l0Zz3-6" value="FK" style="shape=partialRectangle;connectable=0;fillColor=none;top=0;left=0;bottom=0;right=0;editable=1;overflow=hidden;" vertex="1" parent="kxgCFuEd_AuhYG7l0Zz3-5">
          <mxGeometry width="30" height="30" as="geometry" />
        </mxCell>
        <mxCell id="kxgCFuEd_AuhYG7l0Zz3-7" value="user_id" style="shape=partialRectangle;connectable=0;fillColor=none;top=0;left=0;bottom=0;right=0;align=left;spacingLeft=6;overflow=hidden;" vertex="1" parent="kxgCFuEd_AuhYG7l0Zz3-5">
          <mxGeometry x="30" width="110" height="30" as="geometry" />
        </mxCell>
        <mxCell id="kxgCFuEd_AuhYG7l0Zz3-8" value="" style="shape=partialRectangle;collapsible=0;dropTarget=0;pointerEvents=0;fillColor=none;top=0;left=0;bottom=0;right=0;points=[[0,0.5],[1,0.5]];portConstraint=eastwest;" vertex="1" parent="kxgCFuEd_AuhYG7l0Zz3-1">
          <mxGeometry y="90" width="140" height="30" as="geometry" />
        </mxCell>
        <mxCell id="kxgCFuEd_AuhYG7l0Zz3-9" value="FK" style="shape=partialRectangle;connectable=0;fillColor=none;top=0;left=0;bottom=0;right=0;editable=1;overflow=hidden;" vertex="1" parent="kxgCFuEd_AuhYG7l0Zz3-8">
          <mxGeometry width="30" height="30" as="geometry" />
        </mxCell>
        <mxCell id="kxgCFuEd_AuhYG7l0Zz3-10" value="area_id" style="shape=partialRectangle;connectable=0;fillColor=none;top=0;left=0;bottom=0;right=0;align=left;spacingLeft=6;overflow=hidden;" vertex="1" parent="kxgCFuEd_AuhYG7l0Zz3-8">
          <mxGeometry x="30" width="110" height="30" as="geometry" />
        </mxCell>
      </root>
    </mxGraphModel>
  </diagram>
</mxfile>
